<?xml version="1.0" encoding="UTF-8"?>
<!DOCTYPE svg PUBLIC "-//W3C//DTD SVG 1.1//EN" "http://www.w3.org/Graphics/SVG/1.1/DTD/svg11.dtd">
<!-- Creator: CorelDRAW X8 -->
<svg xmlns="http://www.w3.org/2000/svg" xml:space="preserve" width="210mm" height="297mm" version="1.1" style="shape-rendering:geometricPrecision; text-rendering:geometricPrecision; image-rendering:optimizeQuality; fill-rule:evenodd; clip-rule:evenodd"
viewBox="0 0 21000 29700"
 xmlns:xlink="http://www.w3.org/1999/xlink">
 <defs>
  <style type="text/css">
   <![CDATA[
    .fil1 {fill:#FEFEFE}
    .fil0 {fill:#FEFEFE}
   ]]>
  </style>
 </defs>
 <g id="Camada_x0020_1">
  <metadata id="CorelCorpID_0Corel-Layer"/>
  <g id="_3289019325520">
   <path class="fil0" d="M8853 15998c-753,-635 -1389,-1018 -1804,-1893 -378,-798 -649,-2063 -542,-3059 86,-798 474,-2282 783,-2894 203,-403 578,-618 1129,-713 357,-61 1337,-298 1516,78 38,284 -295,1434 -410,1707 -258,610 -503,893 -805,1345 -460,687 -212,947 -409,1703 -131,504 -418,1206 -346,1797 120,-143 53,-514 183,-997 89,-329 211,-630 281,-921 186,-769 -165,-875 568,-1834 1328,-1738 747,-2967 1577,-3258 721,-253 1360,1110 1772,1754 363,567 1975,1869 2591,2242 289,174 562,286 746,478 7,257 -168,332 -281,496 -120,174 -184,362 -256,553 -76,203 -139,375 -211,564 -96,253 -244,355 -291,499 388,-60 600,-1051 742,-1176 23,-210 248,-490 359,-591 95,-86 481,-385 528,-461 158,-256 -739,-971 -833,-1005 -65,77 -68,107 -142,174 -98,87 -134,57 -164,169 285,-19 226,-327 600,-4 92,79 356,321 390,486 -260,59 -1067,-405 -1249,-545 353,-1096 906,-1541 60,-2740 -473,-669 -1296,-1226 -2015,-1653 -514,-305 -807,-333 -1502,-318 -1456,32 -3171,381 -4135,1351 -571,573 -1148,1324 -1666,2004 -336,441 -1294,1716 -1494,2174 -621,1427 2456,4539 2593,4601 -17,-109 -600,-718 -716,-848 -508,-572 -1606,-1994 -1793,-2767 -23,-91 -9,-123 15,-165 110,116 385,754 538,997 1113,1773 2241,2485 3827,3794 109,91 346,248 412,328 160,193 84,300 328,449 423,259 646,-23 1324,241 -23,-327 -341,-470 -593,-587 -157,-73 -830,-457 -862,-256 -9,51 -14,17 -9,94 29,424 507,490 873,513 -574,109 -991,-139 -902,-775 122,-877 335,-625 -305,-1131zm3530 -9734c-29,478 418,752 698,966 447,340 468,552 250,1171 -213,603 -90,866 252,1220 266,276 668,647 1118,225 235,-221 550,-781 382,-1234 -291,-784 -937,-1327 -1640,-1743 -226,-134 -828,-528 -1060,-605z"/>
   <path class="fil0" d="M10276 16903c-164,258 -54,552 147,641 189,84 621,-78 793,-134 553,-179 711,-169 1224,-264 152,-28 299,-4 449,-44 133,-555 -457,-739 -465,-990 59,95 263,262 354,382 258,341 126,417 234,573 91,154 762,125 967,91 217,-35 657,-181 806,-274 150,-784 -385,-729 -535,-1133 97,37 274,273 335,345 6,-7 10,-30 11,-25l31 -151c222,286 69,227 463,418 235,114 458,388 577,139 -80,-93 -228,-52 -387,-155 -133,-86 -199,-138 -287,-245 -185,-226 -429,-290 -521,-501 71,21 298,271 880,464 142,46 254,54 326,120 -166,53 -473,-150 -632,-190 80,316 720,469 853,400 424,-410 74,-707 83,-1124 -40,-44 2,17 -49,-68l-201 -438c-120,-209 -421,-645 -630,-780 -500,-325 -176,181 -1165,-954 -853,-977 -1089,-219 -686,262 198,235 338,150 533,298l-244 81c29,250 202,208 397,343l-277 -2c64,343 449,365 377,549 -82,51 36,22 -64,11 -232,-23 -39,-160 -332,-52 -83,-209 -24,-216 -310,-216 25,-217 88,-179 -74,-383 -112,-140 -201,-128 -276,-217 -84,-99 -58,-176 -184,-308 -118,-124 -165,-94 -178,-310 -343,-63 -1055,-438 -1263,-102 -149,240 91,434 225,530 235,169 254,221 602,217 -49,135 -99,146 67,242 85,49 191,49 310,50 -79,128 -147,92 4,202 375,274 452,7 614,372 -131,-61 -196,-223 -380,-105 -166,145 74,246 123,377 -221,-36 -253,-197 -223,-453 -260,-33 -303,-228 -499,-353 -94,-60 -195,-83 -289,-135 -228,-125 -89,-101 -139,-205 -187,-174 -1377,-189 -1374,345 1,302 284,360 562,388 147,15 297,39 459,26 166,-13 205,-74 340,-86 -59,62 -79,53 -91,165 167,107 308,75 519,69 -111,182 -66,290 -199,394l27 -247c-190,-110 -856,-346 -1120,-209 -293,153 -806,1164 -518,1423 134,120 454,72 581,-24 115,-86 528,-743 569,-835 59,119 -34,125 -67,279 200,-16 175,-96 293,-124 124,-29 97,43 301,-6 100,187 294,451 91,675 -224,250 -271,214 -675,279 -483,77 -1018,425 -1193,692z"/>
   <path class="fil0" d="M10578 9151c-138,-64 -144,-146 -261,-358l-220 57 -46 -227c-123,27 -134,68 -97,376 -8,3 -21,-4 -25,5 -83,225 26,-81 -130,30 -21,518 -220,515 164,1174 66,113 145,188 199,326 -320,-73 -333,-322 -578,-452 -103,107 -41,144 -176,257 -108,89 -171,72 -218,212 62,95 108,105 204,153 188,95 78,80 225,169 242,30 316,-82 652,13 200,56 320,238 512,220l96 -197 45 148c115,-33 58,43 127,-131 84,-207 103,-493 194,-624 61,808 -381,1009 -220,1585 186,668 -281,1176 -226,1645l640 -38c-48,-132 -300,-251 -187,-498 192,-418 653,-230 1168,-67 240,75 461,189 645,245 -59,-238 -228,-636 128,-709 338,-69 464,225 660,301 368,-369 46,-1009 -75,-1401 -102,-331 -26,-360 -229,-687 -380,-613 -1866,-2146 -2307,-2291l-138 154c-1,-294 169,-215 227,-389 -85,-42 -134,21 -242,52 54,-136 147,-284 -94,-129 -102,66 -173,150 -228,273 -105,233 -138,542 -189,803zm1656 3475l31 -148c13,0 99,6 105,5l85 -19c6,-2 17,-7 25,-12 -92,-35 -197,-59 -245,-173 74,-64 73,-21 151,-70l7 -141c-160,-65 -370,-37 -368,-232 168,16 134,125 303,92 196,-39 35,-182 312,-134 119,21 245,105 293,167 23,31 37,59 42,65 68,76 126,81 267,75 -176,-432 -844,-319 -930,-590 116,-77 167,-59 273,-114 -167,-452 -479,-161 -875,-223 -149,-250 -8,-548 -80,-679 -85,99 -181,418 -172,584 0,6 154,575 165,602 45,107 -4,27 84,100 335,276 -167,207 527,845z"/>
   <path class="fil0" d="M8082 19770c-66,-211 -215,-294 -295,-614l-312 -1452c-52,-213 -198,-512 -215,-651 566,202 847,2299 1025,2665 100,203 338,639 519,743 -41,-195 -514,-731 -491,-1304 12,-309 616,-962 883,-948 51,127 68,306 14,420 -146,60 -357,4 -506,-27 -771,591 93,1899 567,1972 331,52 574,-236 717,-376 539,-524 474,-484 1404,-706 389,-93 571,-80 896,70 119,56 661,320 743,267 -647,-646 -1477,-396 -2159,-1252 -398,-500 -236,-444 -935,-463 -366,-10 -329,-47 -602,-118 26,230 130,326 37,653l-19 -230c-3,-299 -150,-437 -354,-617 -209,-184 -415,-366 -654,-580 -275,-245 -1033,-895 -1545,-946 20,121 418,792 631,1711 81,347 125,652 206,1003 36,158 68,320 148,451 44,73 70,95 118,162 10,13 52,73 60,82 83,86 9,35 119,85z"/>
   <path class="fil0" d="M8892 15954c270,202 104,37 326,75 369,934 -168,605 211,991 166,169 53,215 309,325 128,55 378,174 498,205 -60,-202 -246,-510 -13,-663 89,-219 665,-623 1007,-709 114,-29 1178,-51 875,-672 -124,-254 -430,-90 -627,-30 -220,66 -224,268 -378,437 -133,145 -367,268 -661,175 -272,-86 -192,-286 -238,-579 -393,-98 -177,233 -241,423 -97,-28 -134,-64 -187,-139l-232 -584c-68,-425 61,-248 35,-453 -12,-93 -266,-337 -53,-390l62 -13c424,-50 287,189 683,75 84,116 55,108 231,141 217,42 208,45 285,-32 -32,-54 -107,-76 -153,-95l-300 -151c-124,-73 -13,-13 -111,-107 -125,-119 -231,-73 -320,-176 -4,-5 -10,-14 -14,-20l-24 -45c-133,-229 66,74 -38,-68 -83,-113 -272,-165 141,-651 251,-296 64,-140 79,-518 16,-397 421,-646 426,-1063 -211,21 -133,119 -462,104 -203,-9 -339,-18 -410,144 116,63 93,25 183,116 -352,185 -485,-63 -742,-72l30 263 252 81c-226,138 -397,-257 -614,-277 -13,410 343,432 456,867 251,968 173,579 51,1091 171,94 172,178 160,412 -415,308 -263,-2 -474,538 -132,-3 -102,-48 -261,-49 -100,350 8,132 -223,337 45,546 191,361 346,582 72,102 32,80 130,174z"/>
   <path class="fil0" d="M4320 16619c69,165 435,384 587,479 930,576 1447,468 1981,1194 182,248 221,416 350,710 397,904 747,1052 1113,1532 78,103 120,231 268,310 -71,-527 -621,-970 -863,-1373 -287,-478 -244,-1211 -424,-1752 -108,-324 -180,-530 -310,-795 -210,-428 -102,-445 -648,-441 -403,2 -1769,20 -2054,136z"/>
   <path class="fil0" d="M16008 15207c157,153 456,1433 863,1614 -162,-258 -249,-369 -387,-750 -593,-1630 317,-1219 741,-1294 393,-69 324,-194 613,-268 256,-66 182,-45 240,-126 -488,-92 -927,-227 -1444,-321 -387,-70 -1139,-270 -1500,-284 88,145 193,168 303,304 137,170 504,924 571,1125z"/>
   <path class="fil0" d="M15403 12561c-238,80 -17,687 -4,851 8,98 -13,233 41,321l31 -54c92,-233 -33,185 21,-60 59,-270 -141,-590 124,-748 203,57 262,308 386,470 117,153 254,264 480,370 749,352 236,181 501,336l519 123c122,31 82,6 156,64l619 44c-64,-119 -312,-202 -654,-583 -189,-211 -373,-389 -638,-562 -242,-158 -502,-303 -756,-442 -146,-81 -264,-133 -409,-196 -242,-104 -306,-137 -417,66z"/>
   <path class="fil0" d="M18814 14043c-496,-222 -188,226 -1107,-538 -155,-129 -276,-236 -450,-361 -147,-105 -410,-197 -479,-371 241,-4 1338,430 1610,579 332,181 259,255 403,336 144,-126 177,-322 32,-486 -119,-71 -584,-99 -771,-151 -787,-219 -1332,-635 -2109,-660 35,119 225,178 338,248 383,241 703,424 1078,720 300,237 597,668 998,804 159,54 385,37 457,-120z"/>
   <path class="fil0" d="M13201 19349c-82,-201 -602,-421 -601,-967 1,-828 298,-882 333,-1165 -453,-15 -510,-95 -520,317 -15,576 13,995 338,1421 84,110 293,401 450,394z"/>
   <path class="fil0" d="M5783 16357l647 63c11,-117 -90,-205 -205,-395 -73,-121 -24,-85 -134,-118 -67,156 3,257 -141,317 -142,-247 89,-482 36,-619 -179,166 -189,453 -203,752z"/>
   <path class="fil0" d="M10643 17677c125,107 304,96 458,61l141 124c127,-69 343,-273 356,-467 -165,14 -302,79 -465,132 -175,56 -405,85 -490,150z"/>
   <path class="fil1" d="M9330 11448c-54,5 -80,29 -75,75 68,75 126,131 260,163 123,29 263,18 360,3l266 -42c75,-12 64,-95 20,-121l-136 -81c-71,-42 -172,-53 -230,-14l-68 46 -93 73c-40,19 -83,23 -130,2l-174 -104z"/>
   <path class="fil1" d="M9422 11088c-82,-12 -183,28 -203,62 -30,48 -8,103 35,145 44,41 108,69 185,84 53,10 109,0 163,0l305 10c90,3 172,-1 251,33l160 68c62,19 124,31 183,-5 33,-20 9,-77 -17,-116 -32,-34 -37,-40 -101,-74 -56,-29 -124,-38 -216,-44l-249 -15c-72,-5 -141,-25 -210,-51l-150 -57c-39,-14 -82,-32 -136,-40z"/>
  </g>
 </g>
</svg>
